<svg xmlns="http://www.w3.org/2000/svg" version="1.1" xmlns:xlink="http://www.w3.org/1999/xlink" xmlns:svgjs="http://svgjs.dev/svgjs" width="2000" height="2250" viewBox="0 0 2000 2250"><g transform="matrix(1,0,0,1,0,0)"><svg viewBox="0 0 320 360" data-background-color="#ffffff" preserveAspectRatio="xMidYMid meet" height="2250" width="2000" xmlns="http://www.w3.org/2000/svg" xmlns:xlink="http://www.w3.org/1999/xlink"><g id="tight-bounds" transform="matrix(1,0,0,1,0,0)"><svg viewBox="0 0 320 360" height="360" width="320"><g><svg></svg></g><g><svg viewBox="0 0 320 360" height="360" width="320"><g><path xmlns="http://www.w3.org/2000/svg" d="M160 340c88.258 0 160-71.742 160-160 0-88.258-71.742-160-160-160-88.258 0-160 71.742-160 160 0 88.258 71.742 160 160 160zM165.161 329.368v-10.323c72.671-2.684 131.2-61.213 133.884-133.884h10.323c-2.684 78.452-65.755 141.523-144.207 144.207zM165.161 30.632c78.452 2.684 141.523 65.755 144.207 144.207h-10.323c-2.684-72.671-61.213-131.2-133.884-133.884zM289.032 180c0 71.123-57.91 129.032-129.032 129.032-71.123 0-129.032-57.91-129.032-129.032 0-71.123 57.91-129.032 129.032-129.032 71.123 0 129.032 57.91 129.032 129.032zM154.839 30.632v10.323c-72.671 2.684-131.2 61.213-133.884 133.884h-10.323c2.684-78.452 65.755-141.523 144.207-144.207zM20.955 185.161c2.684 72.671 61.213 131.2 133.884 133.884v10.323c-78.452-2.684-141.523-65.755-144.207-144.207z" fill="#61777f" fill-rule="nonzero" stroke="none" stroke-width="1" stroke-linecap="butt" stroke-linejoin="miter" stroke-miterlimit="10" stroke-dasharray="" stroke-dashoffset="0" font-family="none" font-weight="none" font-size="none" text-anchor="none" style="mix-blend-mode: normal" data-fill-palette-color="tertiary"></path></g><g transform="matrix(1,0,0,1,64,128.6472242445367)"><svg viewBox="0 0 192 102.7055515109266" height="102.7055515109266" width="192"><g><svg viewBox="0 0 192 102.7055515109266" height="102.7055515109266" width="192"><g transform="matrix(1,0,0,1,0,75.90391885786536)"><svg viewBox="0 0 192 26.801632653061226" height="26.801632653061226" width="192"><g id="textblocktransform"><svg viewBox="0 0 192 26.801632653061226" height="26.801632653061226" width="192" id="textblock"><g><svg viewBox="0 0 192 26.801632653061226" height="26.801632653061226" width="192"><g transform="matrix(1,0,0,1,0,0)"><svg width="192" viewBox="1.2200000286102295 -32.90999984741211 239.24000549316406 33.400001525878906" height="26.801632653061226" data-palette-color="#61777f"><path d="M1.51-23.88L1.51-23.88Q1.51-27.54 4.76-30.13 8.01-32.71 11.91-32.71L11.91-32.71Q12.94-32.71 14.04-32.57 15.14-32.42 15.89-32.28 16.65-32.13 17.99-31.81 19.34-31.49 20.12-31.35L20.12-31.35Q20.65-26.61 20.65-23.24L20.65-23.24Q20.46-22.75 19.92-22.75L19.92-22.75Q18.51-22.75 18.41-23.1L18.41-23.1Q18.07-25.54 16.31-27.76 14.55-29.98 11.96-29.98L11.96-29.98Q10.3-29.98 9.16-28.96 8.01-27.93 8.01-25.68L8.01-25.68Q8.01-24.71 8.5-23.78 8.98-22.85 10.13-21.88 11.28-20.9 12.01-20.41 12.74-19.92 14.4-18.85L14.4-18.85Q14.84-18.55 15.09-18.41L15.09-18.41Q15.48-18.16 16.7-17.43 17.92-16.7 18.43-16.33 18.95-15.97 19.85-15.14 20.75-14.31 21.17-13.5 21.58-12.7 21.92-11.4 22.27-10.11 22.27-8.54L22.27-8.54Q22.27-4.64 19.04-2.08 15.82 0.49 11.62 0.49L11.62 0.49Q7.76 0.49 2.34-0.78L2.34-0.78Q1.95-2.34 1.59-5.05 1.22-7.76 1.22-8.89L1.22-8.89Q1.37-9.38 2.1-9.38L2.1-9.38Q3.61-9.38 3.66-9.08L3.66-9.08Q4.05-6.84 6.1-4.57 8.15-2.29 10.64-2.29L10.64-2.29Q15.48-2.29 15.48-7.62L15.48-7.62Q15.48-8.45 15.04-9.25 14.6-10.06 13.72-10.84 12.84-11.62 12.16-12.11 11.47-12.6 10.23-13.38 8.98-14.16 8.64-14.4L8.64-14.4Q8.4-14.55 7.91-14.89L7.91-14.89Q6.3-15.97 5.47-16.6 4.64-17.24 3.54-18.36 2.44-19.48 1.98-20.83 1.51-22.17 1.51-23.88ZM44.24-1.61L44.24-1.61Q45.31-1.61 46.43-2.08 47.56-2.54 47.56-3.32L47.56-3.32Q47.56-3.42 46.34-6.59L46.34-6.59 44.87-10.16Q44.68-10.35 44.53-10.35L44.53-10.35Q43.6-10.4 39.84-10.4L39.84-10.4Q36.62-10.4 34.91-10.35L34.91-10.35Q34.71-10.35 34.57-10.11L34.57-10.11Q34.57-10.11 32.96-6.4L32.96-6.4Q31.98-4.2 31.98-3.42 31.98-2.64 32.86-2.2 33.74-1.76 34.4-1.68 35.06-1.61 35.54-1.61L35.54-1.61Q35.69-1.56 35.69-0.83 35.69-0.1 35.59 0.2L35.59 0.2Q34.96 0.15 33.03-0.02 31.1-0.2 29.88-0.2 28.66-0.2 26.95-0.02 25.24 0.15 24.31 0.2L24.31 0.2Q24.12 0 24.12-0.54L24.12-0.54Q24.12-1.56 24.22-1.56L24.22-1.56Q24.8-1.56 26.17-2.08 27.54-2.59 27.88-3.13L27.88-3.13Q28.27-3.71 28.68-4.57 29.1-5.42 29.34-5.96L29.34-5.96 29.59-6.54 40.38-31.35Q40.92-32.62 42.19-32.62L42.19-32.62Q42.92-32.62 43.36-31.98L43.36-31.98 53.37-7.23Q54.29-4.98 54.98-3.22L54.98-3.22Q55.27-2.44 56.59-2.03 57.91-1.61 58.59-1.61L58.59-1.61Q58.79-1.61 58.79-0.78 58.79 0.05 58.69 0.2L58.69 0.2Q58.49 0.2 55.69 0 52.88-0.2 51.61-0.2L51.61-0.2Q51.27-0.2 44.24 0.2L44.24 0.2Q44.04 0 44.04-0.81 44.04-1.61 44.24-1.61ZM36.23-13.48L36.23-13.48Q37.69-13.33 39.84-13.33L39.84-13.33Q41.79-13.33 43.31-13.43L43.31-13.43 43.45-13.67 39.94-22.41 36.13-13.67Q36.13-13.48 36.23-13.48ZM87.3-14.11L87.3-25.59Q87.3-28.37 86.66-29.1L86.66-29.1Q86.23-29.64 84.83-30.08 83.44-30.52 82.86-30.52L82.86-30.52Q82.66-30.52 82.61-31.32 82.56-32.13 82.71-32.32L82.71-32.32Q87.2-31.93 89.16-31.93L89.16-31.93Q90.38-31.93 92.5-32.1 94.62-32.28 95.21-32.32L95.21-32.32Q95.41-31.93 95.41-31.45L95.41-31.45Q95.41-30.52 95.16-30.52L95.16-30.52Q92.48-30.52 91.11-28.91L91.11-28.91Q90.42-28.08 90.42-25.34L90.42-25.34 90.42-6.79Q90.42-5.03 90.62 0.05L90.62 0.05Q90.42 0.24 89.4 0.24L89.4 0.24Q88.81 0.24 87.89-0.88L87.89-0.88 68.01-25.59 68.01-6.88Q68.01-4.2 68.4-3.42L68.4-3.42Q68.84-2.59 70.45-2.12 72.07-1.66 72.8-1.66L72.8-1.66Q72.94-1.66 72.97-0.83 72.99 0 72.9 0.2L72.9 0.2Q72.46 0.2 70.01 0 67.57-0.2 66.3-0.2 65.03-0.2 63.08-0.02 61.13 0.15 60.25 0.2L60.25 0.2Q60.1 0.05 60.1-0.68L60.1-0.68Q60.1-1.61 60.25-1.61L60.25-1.61Q60.74-1.61 61.37-1.71 62.01-1.81 62.98-2.27 63.96-2.73 64.4-3.47L64.4-3.47Q64.89-4.25 64.89-7.03L64.89-7.03 64.89-26.22Q64.89-28.76 64.16-29.69L64.16-29.69Q63.91-30.03 62.45-30.27 60.98-30.52 60.3-30.52L60.3-30.52Q60.1-30.52 60.05-31.32 60-32.13 60.2-32.32L60.2-32.32Q60.98-32.28 63.3-32.1 65.62-31.93 66.89-31.93L66.89-31.93Q68.55-31.93 71.67-32.32L71.67-32.32Q72.5-30.66 74.92-27.51 77.34-24.37 81.15-19.73 84.96-15.09 87.2-12.11L87.2-12.11Q87.3-12.45 87.3-14.11L87.3-14.11ZM126.51-8.79L126.51-8.79Q126.51-8.11 125.75-4.98 124.99-1.86 124.5-1.66L124.5-1.66Q119.04 0.34 113.52 0.34L113.52 0.34Q107.07 0.34 102.48-4.42 97.89-9.18 97.89-15.72L97.89-15.72Q97.89-22.66 102.51-27.61 107.12-32.57 114.01-32.57L114.01-32.57Q119.33-32.57 125.19-31.15L125.19-31.15Q125.43-31.1 125.8-27.88 126.16-24.66 126.16-23.93 126.16-23.19 124.85-23.19L124.85-23.19Q124.8-23.19 124.06-23.34L124.06-23.34Q123.82-24.22 123.26-25.2 122.7-26.17 121.6-27.29 120.5-28.42 118.57-29.13 116.64-29.83 114.25-29.83L114.25-29.83Q105.51-29.83 105.51-16.75L105.51-16.75Q105.51-10.64 108.2-6.47 110.88-2.29 115.81-2.29L115.81-2.29Q119.43-2.29 122.06-4.93L122.06-4.93Q122.7-5.57 123.21-6.67 123.72-7.76 123.99-8.52 124.26-9.28 124.31-9.28L124.31-9.28Q126.31-9.28 126.51-8.79ZM138.64-32.23Q141.93-32.08 143.98-32.08 146.03-32.08 149.36-32.23 152.68-32.37 154.73-32.37L154.73-32.37Q155.95-32.37 158.1-32.91L158.1-32.91 159.02-24.9Q158.68-24.56 157.61-24.56L157.61-24.56Q157.17-24.56 157.12-24.8L157.12-24.8Q155.9-29.64 151.89-29.64L151.89-29.64Q147.94-29.64 147.74-28.76L147.74-28.76Q147.35-27.39 147.35-24.41L147.35-24.41 147.35-6.79Q147.35-4.35 147.74-2.83L147.74-2.83Q147.84-2.49 149.09-2.05 150.33-1.61 150.77-1.61L150.77-1.61Q150.97-1.61 150.97-0.68L150.97-0.68Q150.97-0.1 150.87 0.2L150.87 0.2Q150.53 0.2 147.94 0 145.35-0.2 144.08-0.2L144.08-0.2Q142.76-0.2 140.22-0.02 137.69 0.15 137 0.2L137 0.2Q136.81 0 136.81-0.59L136.81-0.59Q136.81-1.61 136.95-1.61L136.95-1.61Q137.49-1.61 138.76-2.03 140.03-2.44 140.18-2.83L140.18-2.83Q140.52-4.15 140.52-6.59L140.52-6.59 140.52-24.27Q140.52-28.08 140.13-28.76L140.13-28.76Q139.98-29.05 139.86-29.17 139.74-29.3 138.81-29.47 137.88-29.64 136.12-29.64L136.12-29.64Q134.12-29.64 132.85-28.54 131.58-27.44 130.9-24.85L130.9-24.85Q130.85-24.61 130.41-24.61L130.41-24.61Q129.34-24.61 128.99-24.95L128.99-24.95 129.92-32.91Q132.07-32.37 133.29-32.37L133.29-32.37Q135.34-32.37 138.64-32.23ZM168.64-32.03L168.64-32.03Q169.62-32.03 175.48-32.32L175.48-32.32Q175.62-31.88 175.62-31.45L175.62-31.45Q175.62-30.52 175.43-30.52L175.43-30.52Q174.99-30.52 173.67-30.1 172.35-29.69 172.25-29.35L172.25-29.35Q171.91-28.03 171.91-25.2L171.91-25.2 171.91-13.62Q171.91-9.13 173.94-6.4 175.96-3.66 179.43-3.66L179.43-3.66Q183.04-3.66 185.36-6.03 187.68-8.4 187.68-13.96L187.68-13.96 187.68-25.59Q187.68-28.37 187.05-29.1L187.05-29.1Q186.61-29.64 185.22-30.08 183.83-30.52 183.24-30.52L183.24-30.52Q183.04-30.52 183-31.32 182.95-32.13 183.09-32.32L183.09-32.32Q187.59-31.93 189.54-31.93L189.54-31.93Q190.76-31.93 192.88-32.1 195.01-32.28 195.59-32.32L195.59-32.32Q195.79-31.93 195.79-31.45L195.79-31.45Q195.79-30.52 195.54-30.52L195.54-30.52Q192.86-30.52 191.49-28.91L191.49-28.91Q190.81-28.08 190.81-25.34L190.81-25.34 190.81-14.21Q190.81-7.08 187.32-3.42 183.83 0.24 178.26 0.24L178.26 0.24Q172.3 0.24 168.69-3.47 165.08-7.18 165.08-15.19L165.08-15.19 165.08-25.49Q165.08-28.61 164.68-29.3L164.68-29.3Q164.44-29.69 163.32-30.1 162.19-30.52 161.66-30.52L161.66-30.52Q161.46-30.52 161.46-31.35L161.46-31.35Q161.46-32.23 161.56-32.32L161.56-32.32Q168.3-32.03 168.64-32.03ZM206.33-32.03L206.33-32.03Q207.31-32.03 209.09-32.15 210.87-32.28 211.46-32.32L211.46-32.32Q211.95-30.76 215.46-23.12 218.98-15.48 220.69-11.23L220.69-11.23 220.79-11.23Q220.88-11.23 220.88-11.28L220.88-11.28Q224.64-20.61 226.84-26.66L226.84-26.66 228.45-32.13Q229.33-32.03 232.41-32.03L232.41-32.03Q232.7-32.03 238.56-32.32L238.56-32.32Q238.75-32.03 238.75-31.54L238.75-31.54Q238.75-30.52 238.51-30.52L238.51-30.52 238.46-30.52Q237.24-30.52 236.41-29.93L236.41-29.93Q235.68-29.39 235.73-27.93L235.73-27.93Q235.82-25.98 236.22-17.82 236.61-9.67 236.7-7.42L236.7-7.42Q236.85-4.44 237.44-2.93L237.44-2.93Q237.63-2.49 238.73-2.05 239.83-1.61 240.27-1.61L240.27-1.61Q240.46-1.61 240.46-0.63L240.46-0.63Q240.46-0.1 240.37 0.2L240.37 0.2Q239.83 0.15 237.63-0.02 235.43-0.2 234.16-0.2L234.16-0.2Q232.85-0.2 230.31-0.02 227.77 0.15 227.08 0.2L227.08 0.2Q226.84-0.05 226.84-0.59L226.84-0.59Q226.84-1.61 226.99-1.61L226.99-1.61Q227.52-1.61 228.65-2.05 229.77-2.49 230.01-2.98L230.01-2.98Q230.4-3.71 230.4-4.35L230.4-4.35Q230.4-5.47 230.31-7.23L230.31-7.23 229.92-19.63Q229.72-22.9 229.53-22.9L229.53-22.9Q229.43-22.9 229.28-22.56L229.28-22.56 220.83-1.51Q220.64-1.03 220.05-0.46 219.47 0.1 218.88 0.1L218.88 0.1Q218.74 0.1 218.44 0L218.44 0 207.7-24.12 206.87-5.32Q206.87-3.91 206.92-3.56L206.92-3.56Q207.07-2.93 209.07-2.27 211.07-1.61 211.7-1.61L211.7-1.61Q211.9-1.61 211.9-0.63L211.9-0.63Q211.9-0.1 211.8 0.2L211.8 0.2Q211.41 0.2 208.87 0 206.33-0.2 205.06-0.2 203.79-0.2 201.55-0.02 199.3 0.15 198.52 0.2L198.52 0.2Q198.32 0 198.32-0.63L198.32-0.63Q198.32-1.56 198.47-1.56L198.47-1.56Q199.35-1.56 201.33-2.29 203.31-3.03 203.4-4.05L203.4-4.05Q203.5-5.18 203.6-6.4L203.6-6.4Q203.74-8.94 203.94-13.89 204.14-18.85 204.28-23.44 204.43-28.03 204.48-28.66L204.48-28.66Q204.48-29.2 204.33-29.54L204.33-29.54Q204.18-29.93 202.77-30.25 201.35-30.57 200.72-30.57L200.72-30.57Q200.52-30.57 200.52-31.59L200.52-31.59Q200.52-32.13 200.72-32.32L200.72-32.32Q201.4-32.28 203.23-32.15 205.06-32.03 206.33-32.03Z" opacity="1" transform="matrix(1,0,0,1,0,0)" fill="#61777f" class="undefined-text-0" data-fill-palette-color="primary" id="text-0"></path></svg></g></svg></g></svg></g></svg></g><g transform="matrix(1,0,0,1,64.37526280127139,0)"><svg viewBox="0 0 63.249474397457206 63.249474397457206" height="63.249474397457206" width="63.249474397457206"><g><svg></svg></g><g id="icon-0"><svg viewBox="0 0 63.249474397457206 63.249474397457206" height="63.249474397457206" width="63.249474397457206"><g><path d="M0 31.625c0-17.466 14.159-31.625 31.625-31.625 17.466 0 31.625 14.159 31.624 31.625 0 17.466-14.159 31.625-31.624 31.624-17.466 0-31.625-14.159-31.625-31.624zM31.625 60.832c16.131 0 29.208-13.077 29.207-29.207 0-16.131-13.077-29.208-29.207-29.208-16.131 0-29.208 13.077-29.208 29.208 0 16.131 13.077 29.208 29.208 29.207z" data-fill-palette-color="accent" fill="#c8c8c8" stroke="transparent"></path><ellipse rx="31.308489826741315" ry="31.308489826741315" cx="31.624737198728603" cy="31.624737198728603" fill="#c8c8c8" stroke="transparent" stroke-width="0" fill-opacity="1" data-fill-palette-color="accent"></ellipse></g><g transform="matrix(1,0,0,1,15.1668704902984,15.1668704902984)"><svg viewBox="0 0 32.915733416860405 32.915733416860405" height="32.915733416860405" width="32.915733416860405"><g><svg xmlns="http://www.w3.org/2000/svg" xmlns:xlink="http://www.w3.org/1999/xlink" version="1.1" x="0" y="0" viewBox="4 4 92 92" enable-background="new 0 0 100 100" xml:space="preserve" height="32.915733416860405" width="32.915733416860405" class="icon-s-0" data-fill-palette-color="quaternary" id="s-0"><g fill="#ffffff" data-fill-palette-color="quaternary"><path stroke="#FFFFFF" stroke-miterlimit="10" d="M62.4 21.1c0 0 1.3 4.6 4.5 8.1 0 0 0 4.4 2 4.4 0 0 3.6 3.9 4.6 6.4 0.6 1.3 5.4 0.8 6 0 1.5-1.3 0.5 2-2.7 7.3s-10.9 2.8-5.7 17.2c0 0-1.1 1.8-3.5 2.6 0 0-1.8 2.4-2.2 3.2-0.5 0.8 2 2.9-1.9 4.4 0 0-2.1 8.1-6.5 8.3s-4.4 0.2-4.4 0.2 0.1-4.2-3.3-6c0 0-2-9-3.7-9.7-1.7-1.2 1.9-5.6 1.9-5.6s0.2-7.9-3.7-9.8c0 0 0.7-6.3-0.8-6.1-1.5 0.2-4-1.2-4.2-1.7s-6.2 1.5-10.4 1.9c-4.2 0.5-8-10.3-8-10.3s3-4 0.8-5.5C19 29 27.5 22 27.5 22v-1.7l3.5-3.5c0 0 3 1.1 7.2-1.1s6.1 0 6.1 0c2 5.3 7.5 7.4 9 3.5C53.3 19.2 57.7 22 62.4 21.1zM75.4 65.6C72.7 66 73.8 70 73.8 70c-1.7 1.9-1 2.7-1 2.7 2.7 6 4.6-3.1 4.6-3.1 2.4-5.2 1-6.9 1-6.9C77.8 63.7 75.4 65.6 75.4 65.6zM50 96C24.6 96 4 75.4 4 50S24.6 4 50 4s46 20.6 46 46S75.4 96 50 96zM50 6C25.7 6 6 25.7 6 50s19.7 44 44 44 44-19.7 44-44S74.3 6 50 6z" fill="#ffffff" data-fill-palette-color="quaternary"></path></g></svg></g></svg></g></svg></g></svg></g><g></g></svg></g></svg></g></svg></g><defs></defs></svg><rect width="320" height="360" fill="none" stroke="none" visibility="hidden"></rect></g></svg></g></svg>